<mxfile host="app.diagrams.net" agent="Mozilla/5.0 (X11; Linux x86_64) AppleWebKit/537.36 (KHTML, like Gecko) Chrome/128.0.0.0 Safari/537.36" version="24.7.10">
  <diagram name="PÃ¡gina-1" id="k8RRVN_sO56psnZZl5dn">
    <mxGraphModel dx="2835" dy="1274" grid="1" gridSize="10" guides="1" tooltips="1" connect="1" arrows="1" fold="1" page="1" pageScale="1" pageWidth="827" pageHeight="1169" math="0" shadow="0">
      <root>
        <mxCell id="0" />
        <mxCell id="1" parent="0" />
        <mxCell id="mGF00M1zY_MnlottlnbL-1" value="Area Protegida" style="rounded=0;whiteSpace=wrap;html=1;" vertex="1" parent="1">
          <mxGeometry x="330" y="210" width="120" height="60" as="geometry" />
        </mxCell>
        <mxCell id="mGF00M1zY_MnlottlnbL-2" value="Visita" style="rounded=0;whiteSpace=wrap;html=1;" vertex="1" parent="1">
          <mxGeometry x="350" y="1080" width="120" height="60" as="geometry" />
        </mxCell>
        <mxCell id="mGF00M1zY_MnlottlnbL-3" value="Guardaparque" style="rounded=0;whiteSpace=wrap;html=1;" vertex="1" parent="1">
          <mxGeometry x="-80" y="680" width="120" height="60" as="geometry" />
        </mxCell>
        <mxCell id="mGF00M1zY_MnlottlnbL-4" value="Especie" style="rounded=0;whiteSpace=wrap;html=1;" vertex="1" parent="1">
          <mxGeometry x="810" y="670" width="120" height="60" as="geometry" />
        </mxCell>
        <mxCell id="mGF00M1zY_MnlottlnbL-6" value="&lt;u&gt;nombre&lt;/u&gt;" style="ellipse;whiteSpace=wrap;html=1;" vertex="1" parent="1">
          <mxGeometry x="520" y="130" width="120" height="80" as="geometry" />
        </mxCell>
        <mxCell id="mGF00M1zY_MnlottlnbL-7" value="fecha_de_fundacion" style="ellipse;whiteSpace=wrap;html=1;" vertex="1" parent="1">
          <mxGeometry x="330" y="60" width="120" height="80" as="geometry" />
        </mxCell>
        <mxCell id="mGF00M1zY_MnlottlnbL-8" value="cantidad_de_hectareas" style="ellipse;whiteSpace=wrap;html=1;" vertex="1" parent="1">
          <mxGeometry x="120" y="150" width="130" height="80" as="geometry" />
        </mxCell>
        <mxCell id="mGF00M1zY_MnlottlnbL-10" value="provincias" style="ellipse;whiteSpace=wrap;html=1;" vertex="1" parent="1">
          <mxGeometry x="180" y="310" width="120" height="80" as="geometry" />
        </mxCell>
        <mxCell id="mGF00M1zY_MnlottlnbL-11" value="&lt;u&gt;anio&lt;/u&gt;" style="ellipse;whiteSpace=wrap;html=1;" vertex="1" parent="1">
          <mxGeometry x="210" y="930" width="120" height="80" as="geometry" />
        </mxCell>
        <mxCell id="mGF00M1zY_MnlottlnbL-12" value="cantidad_de_visitas" style="ellipse;whiteSpace=wrap;html=1;" vertex="1" parent="1">
          <mxGeometry x="520" y="1090" width="120" height="80" as="geometry" />
        </mxCell>
        <mxCell id="mGF00M1zY_MnlottlnbL-13" value="ingreso de dinero" style="ellipse;whiteSpace=wrap;html=1;" vertex="1" parent="1">
          <mxGeometry x="210" y="1170" width="120" height="80" as="geometry" />
        </mxCell>
        <mxCell id="mGF00M1zY_MnlottlnbL-14" value="&lt;u&gt;nombre_cientifico&lt;/u&gt;" style="ellipse;whiteSpace=wrap;html=1;" vertex="1" parent="1">
          <mxGeometry x="920" y="520" width="120" height="80" as="geometry" />
        </mxCell>
        <mxCell id="mGF00M1zY_MnlottlnbL-15" value="&lt;u&gt;numero_de_legajo&lt;/u&gt;" style="ellipse;whiteSpace=wrap;html=1;" vertex="1" parent="1">
          <mxGeometry x="-140" y="530" width="120" height="80" as="geometry" />
        </mxCell>
        <mxCell id="mGF00M1zY_MnlottlnbL-16" value="telefono" style="ellipse;whiteSpace=wrap;html=1;" vertex="1" parent="1">
          <mxGeometry x="-270" y="660" width="120" height="80" as="geometry" />
        </mxCell>
        <mxCell id="mGF00M1zY_MnlottlnbL-17" value="telefono" style="ellipse;whiteSpace=wrap;html=1;" vertex="1" parent="1">
          <mxGeometry x="-265" y="665" width="110" height="70" as="geometry" />
        </mxCell>
        <mxCell id="mGF00M1zY_MnlottlnbL-18" value="" style="endArrow=none;html=1;rounded=0;entryX=0.605;entryY=1.022;entryDx=0;entryDy=0;entryPerimeter=0;exitX=0.542;exitY=0.035;exitDx=0;exitDy=0;exitPerimeter=0;" edge="1" parent="1" source="mGF00M1zY_MnlottlnbL-1" target="mGF00M1zY_MnlottlnbL-7">
          <mxGeometry width="50" height="50" relative="1" as="geometry">
            <mxPoint x="390" y="310" as="sourcePoint" />
            <mxPoint x="440" y="260" as="targetPoint" />
          </mxGeometry>
        </mxCell>
        <mxCell id="mGF00M1zY_MnlottlnbL-19" value="" style="endArrow=none;html=1;rounded=0;exitX=1.001;exitY=0.414;exitDx=0;exitDy=0;exitPerimeter=0;" edge="1" parent="1" source="mGF00M1zY_MnlottlnbL-1" target="mGF00M1zY_MnlottlnbL-6">
          <mxGeometry width="50" height="50" relative="1" as="geometry">
            <mxPoint x="390" y="310" as="sourcePoint" />
            <mxPoint x="440" y="260" as="targetPoint" />
          </mxGeometry>
        </mxCell>
        <mxCell id="mGF00M1zY_MnlottlnbL-20" value="" style="endArrow=none;html=1;rounded=0;" edge="1" parent="1" source="mGF00M1zY_MnlottlnbL-8" target="mGF00M1zY_MnlottlnbL-1">
          <mxGeometry width="50" height="50" relative="1" as="geometry">
            <mxPoint x="360" y="330" as="sourcePoint" />
            <mxPoint x="410" y="280" as="targetPoint" />
          </mxGeometry>
        </mxCell>
        <mxCell id="mGF00M1zY_MnlottlnbL-21" value="" style="endArrow=none;html=1;rounded=0;exitX=0.918;exitY=0.259;exitDx=0;exitDy=0;exitPerimeter=0;entryX=0.306;entryY=1.058;entryDx=0;entryDy=0;entryPerimeter=0;" edge="1" parent="1" source="mGF00M1zY_MnlottlnbL-10" target="mGF00M1zY_MnlottlnbL-1">
          <mxGeometry width="50" height="50" relative="1" as="geometry">
            <mxPoint x="360" y="330" as="sourcePoint" />
            <mxPoint x="410" y="280" as="targetPoint" />
          </mxGeometry>
        </mxCell>
        <mxCell id="mGF00M1zY_MnlottlnbL-22" value="" style="endArrow=none;html=1;rounded=0;" edge="1" parent="1" source="mGF00M1zY_MnlottlnbL-2" target="mGF00M1zY_MnlottlnbL-11">
          <mxGeometry width="50" height="50" relative="1" as="geometry">
            <mxPoint x="370" y="800" as="sourcePoint" />
            <mxPoint x="420" y="750" as="targetPoint" />
          </mxGeometry>
        </mxCell>
        <mxCell id="mGF00M1zY_MnlottlnbL-23" value="" style="endArrow=none;html=1;rounded=0;" edge="1" parent="1" source="mGF00M1zY_MnlottlnbL-2" target="mGF00M1zY_MnlottlnbL-12">
          <mxGeometry width="50" height="50" relative="1" as="geometry">
            <mxPoint x="370" y="1020" as="sourcePoint" />
            <mxPoint x="420" y="970" as="targetPoint" />
          </mxGeometry>
        </mxCell>
        <mxCell id="mGF00M1zY_MnlottlnbL-24" value="" style="endArrow=none;html=1;rounded=0;entryX=-0.019;entryY=0.621;entryDx=0;entryDy=0;entryPerimeter=0;" edge="1" parent="1" source="mGF00M1zY_MnlottlnbL-13" target="mGF00M1zY_MnlottlnbL-2">
          <mxGeometry width="50" height="50" relative="1" as="geometry">
            <mxPoint x="350" y="1000" as="sourcePoint" />
            <mxPoint x="400" y="950" as="targetPoint" />
          </mxGeometry>
        </mxCell>
        <mxCell id="mGF00M1zY_MnlottlnbL-25" value="" style="endArrow=none;html=1;rounded=0;exitX=0.432;exitY=1.044;exitDx=0;exitDy=0;exitPerimeter=0;entryX=0.398;entryY=0.029;entryDx=0;entryDy=0;entryPerimeter=0;" edge="1" parent="1" source="mGF00M1zY_MnlottlnbL-15" target="mGF00M1zY_MnlottlnbL-3">
          <mxGeometry width="50" height="50" relative="1" as="geometry">
            <mxPoint x="-180" y="790" as="sourcePoint" />
            <mxPoint x="-130" y="740" as="targetPoint" />
          </mxGeometry>
        </mxCell>
        <mxCell id="mGF00M1zY_MnlottlnbL-26" value="" style="endArrow=none;html=1;rounded=0;exitX=1;exitY=0.625;exitDx=0;exitDy=0;exitPerimeter=0;entryX=0;entryY=0.75;entryDx=0;entryDy=0;" edge="1" parent="1" source="mGF00M1zY_MnlottlnbL-16" target="mGF00M1zY_MnlottlnbL-3">
          <mxGeometry width="50" height="50" relative="1" as="geometry">
            <mxPoint x="-210" y="830" as="sourcePoint" />
            <mxPoint x="-160" y="780" as="targetPoint" />
          </mxGeometry>
        </mxCell>
        <mxCell id="mGF00M1zY_MnlottlnbL-27" value="" style="endArrow=none;html=1;rounded=0;exitX=0.403;exitY=1.026;exitDx=0;exitDy=0;exitPerimeter=0;" edge="1" parent="1" source="mGF00M1zY_MnlottlnbL-14" target="mGF00M1zY_MnlottlnbL-4">
          <mxGeometry width="50" height="50" relative="1" as="geometry">
            <mxPoint x="790" y="810" as="sourcePoint" />
            <mxPoint x="840" y="760" as="targetPoint" />
          </mxGeometry>
        </mxCell>
        <mxCell id="mGF00M1zY_MnlottlnbL-28" value="asignado a" style="rhombus;whiteSpace=wrap;html=1;" vertex="1" parent="1">
          <mxGeometry x="210" y="490" width="130" height="120" as="geometry" />
        </mxCell>
        <mxCell id="mGF00M1zY_MnlottlnbL-29" value="" style="endArrow=none;html=1;rounded=0;exitX=1;exitY=0.25;exitDx=0;exitDy=0;entryX=0.154;entryY=0.667;entryDx=0;entryDy=0;entryPerimeter=0;" edge="1" parent="1" source="mGF00M1zY_MnlottlnbL-3" target="mGF00M1zY_MnlottlnbL-28">
          <mxGeometry width="50" height="50" relative="1" as="geometry">
            <mxPoint x="180" y="600" as="sourcePoint" />
            <mxPoint x="230" y="550" as="targetPoint" />
          </mxGeometry>
        </mxCell>
        <mxCell id="mGF00M1zY_MnlottlnbL-30" value="" style="endArrow=none;html=1;rounded=0;exitX=0.567;exitY=1.033;exitDx=0;exitDy=0;exitPerimeter=0;" edge="1" parent="1" source="mGF00M1zY_MnlottlnbL-1" target="mGF00M1zY_MnlottlnbL-28">
          <mxGeometry width="50" height="50" relative="1" as="geometry">
            <mxPoint x="180" y="600" as="sourcePoint" />
            <mxPoint x="230" y="550" as="targetPoint" />
          </mxGeometry>
        </mxCell>
        <mxCell id="mGF00M1zY_MnlottlnbL-31" value="habita en" style="rhombus;whiteSpace=wrap;html=1;" vertex="1" parent="1">
          <mxGeometry x="610" y="390" width="130" height="110" as="geometry" />
        </mxCell>
        <mxCell id="mGF00M1zY_MnlottlnbL-32" value="" style="endArrow=none;html=1;rounded=0;entryX=1;entryY=0.867;entryDx=0;entryDy=0;entryPerimeter=0;" edge="1" parent="1" source="mGF00M1zY_MnlottlnbL-31" target="mGF00M1zY_MnlottlnbL-1">
          <mxGeometry width="50" height="50" relative="1" as="geometry">
            <mxPoint x="520" y="600" as="sourcePoint" />
            <mxPoint x="570" y="550" as="targetPoint" />
          </mxGeometry>
        </mxCell>
        <mxCell id="mGF00M1zY_MnlottlnbL-33" value="" style="endArrow=none;html=1;rounded=0;entryX=0.117;entryY=-0.05;entryDx=0;entryDy=0;entryPerimeter=0;" edge="1" parent="1" source="mGF00M1zY_MnlottlnbL-31" target="mGF00M1zY_MnlottlnbL-4">
          <mxGeometry width="50" height="50" relative="1" as="geometry">
            <mxPoint x="950" y="660" as="sourcePoint" />
            <mxPoint x="1000" y="610" as="targetPoint" />
          </mxGeometry>
        </mxCell>
        <mxCell id="mGF00M1zY_MnlottlnbL-34" value="tiene" style="rhombus;whiteSpace=wrap;html=1;" vertex="1" parent="1">
          <mxGeometry x="390" y="650" width="140" height="120" as="geometry" />
        </mxCell>
        <mxCell id="mGF00M1zY_MnlottlnbL-35" value="" style="endArrow=none;html=1;rounded=0;exitX=0.5;exitY=0;exitDx=0;exitDy=0;entryX=0.314;entryY=0.825;entryDx=0;entryDy=0;entryPerimeter=0;" edge="1" parent="1" source="mGF00M1zY_MnlottlnbL-2" target="mGF00M1zY_MnlottlnbL-34">
          <mxGeometry width="50" height="50" relative="1" as="geometry">
            <mxPoint x="360" y="820" as="sourcePoint" />
            <mxPoint x="410" y="770" as="targetPoint" />
          </mxGeometry>
        </mxCell>
        <mxCell id="mGF00M1zY_MnlottlnbL-36" value="" style="endArrow=none;html=1;rounded=0;exitX=0.75;exitY=1;exitDx=0;exitDy=0;" edge="1" parent="1" source="mGF00M1zY_MnlottlnbL-1" target="mGF00M1zY_MnlottlnbL-34">
          <mxGeometry width="50" height="50" relative="1" as="geometry">
            <mxPoint x="360" y="820" as="sourcePoint" />
            <mxPoint x="410" y="770" as="targetPoint" />
          </mxGeometry>
        </mxCell>
        <mxCell id="mGF00M1zY_MnlottlnbL-37" value="(1, N)" style="text;html=1;align=center;verticalAlign=middle;resizable=0;points=[];autosize=1;strokeColor=none;fillColor=none;" vertex="1" parent="1">
          <mxGeometry x="450" y="430" width="50" height="30" as="geometry" />
        </mxCell>
        <mxCell id="mGF00M1zY_MnlottlnbL-38" value="(1, 1)" style="text;html=1;align=center;verticalAlign=middle;resizable=0;points=[];autosize=1;strokeColor=none;fillColor=none;" vertex="1" parent="1">
          <mxGeometry x="450" y="888" width="50" height="30" as="geometry" />
        </mxCell>
        <mxCell id="mGF00M1zY_MnlottlnbL-39" value="(1, N)" style="text;html=1;align=center;verticalAlign=middle;resizable=0;points=[];autosize=1;strokeColor=none;fillColor=none;" vertex="1" parent="1">
          <mxGeometry x="580" y="310" width="50" height="30" as="geometry" />
        </mxCell>
        <mxCell id="mGF00M1zY_MnlottlnbL-40" value="(1, 1)" style="text;html=1;align=center;verticalAlign=middle;resizable=0;points=[];autosize=1;strokeColor=none;fillColor=none;" vertex="1" parent="1">
          <mxGeometry x="760" y="530" width="50" height="30" as="geometry" />
        </mxCell>
        <mxCell id="mGF00M1zY_MnlottlnbL-41" value="(1,1)" style="text;html=1;align=center;verticalAlign=middle;resizable=0;points=[];autosize=1;strokeColor=none;fillColor=none;" vertex="1" parent="1">
          <mxGeometry x="110" y="580" width="50" height="30" as="geometry" />
        </mxCell>
        <mxCell id="mGF00M1zY_MnlottlnbL-42" value="(1,N)" style="text;html=1;align=center;verticalAlign=middle;resizable=0;points=[];autosize=1;strokeColor=none;fillColor=none;" vertex="1" parent="1">
          <mxGeometry x="280" y="410" width="50" height="30" as="geometry" />
        </mxCell>
      </root>
    </mxGraphModel>
  </diagram>
</mxfile>
